<?xml version="1.0" encoding="UTF-8" standalone="no"?>
<!DOCTYPE svg PUBLIC "-//W3C//DTD SVG 1.1//EN" "http://www.w3.org/Graphics/SVG/1.1/DTD/svg11.dtd">
<svg width="100%" height="100%" viewBox="0 0 1150 600" version="1.1" xmlns="http://www.w3.org/2000/svg" xmlns:xlink="http://www.w3.org/1999/xlink" xml:space="preserve" xmlns:serif="http://www.serif.com/" style="fill-rule:evenodd;clip-rule:evenodd;stroke-linecap:round;stroke-miterlimit:10;">
    <g id="Artboard1" transform="matrix(0.891593,0,0,0.899607,0,-43.7103)">
        <rect x="0" y="48.588" width="1289.83" height="666.958" style="fill:none;"/>
        <g transform="matrix(1.12159,0,0,1.1116,-37.1854,-35.7886)">
            <g transform="matrix(1,0,0,1,-113.888,-28.578)">
                <g transform="matrix(0.432996,0,0,0.432996,148.2,112.757)">
                    <circle cx="261.374" cy="257.315" r="46.19" style="fill:#ea9df5;"/>
                </g>
                <g transform="matrix(0.83132,0,0,0.825294,44.0887,32.1446)">
                    <rect x="205.812" y="171.656" width="111.124" height="24.672" style="fill:#ea9df5;"/>
                </g>
                <g transform="matrix(1,0,0,1,-55.562,-339.537)">
                    <g transform="matrix(16,0,0,16,358.824,528.874)">
                    </g>
                    <text x="275.048px" y="528.874px" style="font-family: 'Atkinson Hyperlegible', sans-serif;font-weight:700;font-size:16px;fill:#4d4950;">contr<tspan x="313.944px " y="528.874px ">i</tspan>butor</text>
                </g>
            </g>
            <g transform="matrix(1,0,0,1,289.883,-28.578)">
                <g transform="matrix(0.432996,0,0,0.432996,148.2,112.757)">
                    <circle cx="261.374" cy="257.315" r="46.19" style="fill:#f2a900;"/>
                </g>
                <g transform="matrix(0.539937,0,0,0.825294,120.248,32.1446)">
                    <rect x="205.812" y="171.656" width="111.124" height="24.672" style="fill:#f2a900;"/>
                </g>
                <g transform="matrix(1,0,0,1,-55.562,-339.537)">
                    <g transform="matrix(16,0,0,16,339.32,528.874)">
                    </g>
                    <text x="294.552px" y="528.874px" style="font-family: 'Atkinson Hyperlegible', sans-serif;font-weight:700;font-size:16px;fill:#4d4950;">own<tspan x="324.312px " y="528.874px ">e</tspan>r</text>
                </g>
            </g>
            <g transform="matrix(1,0,0,1,20.7022,-28.578)">
                <g transform="matrix(0.432996,0,0,0.432996,148.2,112.757)">
                    <circle cx="261.374" cy="257.315" r="46.19" style="fill:#a682e8;"/>
                </g>
                <g transform="matrix(0.91566,0,0,0.825294,22.0443,32.1446)">
                    <rect x="205.812" y="171.656" width="111.124" height="24.672" style="fill:#a682e8;"/>
                </g>
                <g transform="matrix(1,0,0,1,-55.562,-339.537)">
                    <g transform="matrix(16,0,0,16,362.456,528.874)">
                    </g>
                    <text x="271.416px" y="528.874px" style="font-family: 'Atkinson Hyperlegible', sans-serif;font-weight:700;font-size:16px;fill:#fff;">centr<tspan x="309.752px " y="528.874px ">a</tspan>l repo</text>
                </g>
            </g>
            <g transform="matrix(1,0,0,1,155.293,-28.578)">
                <g transform="matrix(0.432996,0,0,0.432996,148.2,112.757)">
                    <circle cx="261.374" cy="257.315" r="46.19" style="fill:#64d6d3;"/>
                </g>
                <g transform="matrix(0.819489,0,0,0.825294,47.1808,32.1446)">
                    <rect x="205.812" y="171.656" width="111.124" height="24.672" style="fill:#64d6d3;"/>
                </g>
                <g transform="matrix(1,0,0,1,-55.562,-339.537)">
                    <g transform="matrix(16,0,0,16,355.432,528.874)">
                    </g>
                    <text x="278.44px" y="528.874px" style="font-family: 'Atkinson Hyperlegible', sans-serif;font-weight:700;font-size:16px;fill:#4d4950;">repos<tspan x="320.504px " y="528.874px ">i</tspan>tor<tspan x="347.144px " y="528.874px ">y</tspan></text>
                </g>
            </g>
            <g transform="matrix(1,0,0,1,8.26144,-0.297066)">
                <g transform="matrix(1,-0,-0,1,24.8929,76.2031)">
                    <path d="M259.36,55.553L257.042,58.588L254.008,56.27" style="fill:none;stroke:#a682e8;stroke-width:1.5px;"/>
                    <path d="M283.624,29.267C283.624,29.267 253.164,27.166 257.042,58.588" style="fill:none;stroke:#a682e8;stroke-width:1.5px;stroke-linejoin:round;stroke-miterlimit:1.5;"/>
                </g>
            </g>
            <g transform="matrix(1,0,0,1,-81.6518,79.4971)">
                <text x="403.07px" y="25.696px" style="font-family: 'Atkinson Hyperlegible', sans-serif;font-size:14px;fill:#4d4950;">Th<tspan x="418.372px " y="25.696px ">e</tspan> &quot;cen<tspan x="456.06px 460.596px 465.146px " y="25.696px 25.696px 25.696px ">tra</tspan>l&quot; repositor<tspan x="539.822px " y="25.696px ">y</tspan> that</text>
                <g transform="matrix(14,0,0,14,566.842,39.6961)">
                </g>
                <text x="403.07px" y="39.696px" style="font-family: 'Atkinson Hyperlegible', sans-serif;font-size:14px;fill:#4d4950;">this visual is based aroun<tspan x="558.946px " y="39.696px ">d</tspan></text>
            </g>
            <g transform="matrix(1,0,0,1,-162.321,-300.614)">
                <g transform="matrix(18,0,0,18,285.715,432.844)">
                </g>
                <text x="225.667px" y="432.844px" style="font-family: 'Atkinson Hyperlegible', sans-serif;font-weight:700;font-size:18px;fill:#4d4950;">C<tspan x="237.439px 251.191px 260.191px " y="432.844px 432.844px 432.844px ">OLO</tspan>R</text>
            </g>
            <g>
                <g transform="matrix(1,0,0,1,225.867,-210.065)">
                    <text x="129.905px" y="455.531px" style="font-family: 'Atkinson Hyperlegible', sans-serif;font-size:12px;fill:#4d4950;">Conn<tspan x="157.373px " y="455.531px ">e</tspan>cted to an OR<tspan x="236.309px " y="455.531px ">C</tspan>A</text>
                    <g transform="matrix(12,0,0,12,251.513,467.531)">
                    </g>
                    <text x="130.085px" y="467.531px" style="font-family: 'Atkinson Hyperlegible', sans-serif;font-size:12px;fill:#4d4950;">suppor<tspan x="166.649px " y="467.531px ">t</tspan>ed con<tspan x="206.153px " y="467.531px ">t</tspan>ributor?</text>
                </g>
                <g>
                    <g transform="matrix(1,0,0,1,294.576,-150.436)">
                        <g transform="matrix(10,0,0,10,147.723,452.779)">
                        </g>
                        <text x="135.313px" y="452.779px" style="font-family: 'Atkinson Hyperlegible', sans-serif;font-size:10px;fill:#4d4950;">No</text>
                    </g>
                    <g transform="matrix(0.472231,0,0,0.472231,328.924,-67.8562)">
                        <circle cx="226.944" cy="736.104" r="21.176" style="fill:#64d6d3;fill-opacity:0.5;"/>
                    </g>
                    <g transform="matrix(0.118058,0,0,0.118058,409.301,192.852)">
                        <circle cx="226.944" cy="736.104" r="21.176" style="fill:#64d6d3;"/>
                    </g>
                </g>
                <g>
                    <g transform="matrix(1,0,0,1,254.8,-150.436)">
                        <g transform="matrix(10,0,0,10,149.113,452.779)">
                        </g>
                        <text x="133.923px" y="452.779px" style="font-family: 'Atkinson Hyperlegible', sans-serif;font-size:10px;fill:#4d4950;">Y<tspan x="139.013px " y="452.779px ">e</tspan>s</text>
                    </g>
                    <g transform="matrix(0.472231,0,0,0.472231,289.148,-67.8562)">
                        <circle cx="226.944" cy="736.104" r="21.176" style="fill:#64d6d3;"/>
                    </g>
                </g>
            </g>
            <g transform="matrix(1,0,0,0.934218,0,14.9052)">
                <path d="M492.224,226.584L492.224,317.794C492.224,318.681 491.552,319.399 490.724,319.399L342.609,319.399C341.781,319.399 341.109,318.681 341.109,317.794L341.109,226.584C341.109,225.697 341.781,224.978 342.609,224.978L490.724,224.978C491.552,224.978 492.224,225.697 492.224,226.584ZM490.724,226.584L342.609,226.584L342.609,317.794L490.724,317.794L490.724,226.584Z" style="fill:#e8e8e8;"/>
            </g>
            <path d="M416.667,226.584L416.667,217.867" style="fill:none;stroke:#e8e8e8;stroke-width:1.5px;stroke-linecap:butt;stroke-linejoin:round;stroke-miterlimit:1.5;"/>
        </g>
        <g transform="matrix(1.12159,0,0,1.1116,-37.1854,-35.7886)">
            <g transform="matrix(1,0,0,1,-93.1809,157.771)">
                <g transform="matrix(0.984547,0,0,0.984547,-10.3599,16.3522)">
                    <circle cx="254.967" cy="227.666" r="30.471" style="fill:#ea9df5;fill-opacity:0.4;"/>
                </g>
                <g transform="matrix(0.73841,0,0,0.73841,52.3967,79.8892)">
                    <circle cx="254.967" cy="227.666" r="30.471" style="fill:#ea9df5;fill-opacity:0.5;"/>
                </g>
                <g transform="matrix(0.492273,0,0,0.492273,115.153,143.426)">
                    <circle cx="254.967" cy="227.666" r="30.471" style="fill:#ea9df5;"/>
                </g>
                <g transform="matrix(1,0,0,1,0.152302,1.41012)">
                    <text x="192.935px" y="185.431px" style="font-family: 'Atkinson Hyperlegible', sans-serif;font-size:14px;fill:#4d4950;">Commits to th<tspan x="280.547px " y="185.431px ">e</tspan></text>
                    <g transform="matrix(14,0,0,14,277.355,199.431)">
                    </g>
                    <text x="203.673px" y="199.431px" style="font-family: 'Atkinson Hyperlegible', sans-serif;font-size:14px;fill:#4d4950;">cen<tspan x="225.681px 230.217px 234.767px " y="199.431px 199.431px 199.431px ">tra</tspan>l repo</text>
                </g>
            </g>
            <g transform="matrix(1,0,0,1,41.4096,157.771)">
                <g transform="matrix(0.984547,0,0,0.984547,-10.3599,16.3522)">
                    <circle cx="254.967" cy="227.666" r="30.471" style="fill:#a682e8;"/>
                </g>
                <g transform="matrix(1,0,0,1,0.152302,1.41012)">
                    <g transform="matrix(14,0,0,14,271.44,192.431)">
                    </g>
                    <text x="209.588px" y="192.431px" style="font-family: 'Atkinson Hyperlegible', sans-serif;font-size:14px;fill:#4d4950;">Fixed size</text>
                </g>
            </g>
            <g transform="matrix(1,0,0,1,176,158.242)">
                <g transform="matrix(0.984547,0,0,0.984547,-10.3599,16.3522)">
                    <circle cx="254.967" cy="227.666" r="30.471" style="fill:#64d6d3;fill-opacity:0.4;"/>
                </g>
                <g transform="matrix(0.73841,0,0,0.73841,52.3967,79.8892)">
                    <circle cx="254.967" cy="227.666" r="30.471" style="fill:#64d6d3;fill-opacity:0.49;"/>
                </g>
                <g transform="matrix(0.492273,0,0,0.492273,115.153,143.426)">
                    <circle cx="254.967" cy="227.666" r="30.471" style="fill:#64d6d3;"/>
                </g>
                <g transform="matrix(1,0,0,1,0.152302,1.41012)">
                    <g transform="matrix(14,0,0,14,290.851,192.431)">
                    </g>
                    <text x="190.177px" y="192.431px" style="font-family: 'Atkinson Hyperlegible', sans-serif;font-size:14px;fill:#4d4950;">Number of Stars</text>
                </g>
            </g>
            <g transform="matrix(1,0,0,1,310.591,158.242)">
                <g transform="matrix(0.984547,0,0,0.984547,-10.3599,16.3522)">
                    <circle cx="254.967" cy="227.666" r="30.471" style="fill:#f2a900;fill-opacity:0.4;"/>
                </g>
                <g transform="matrix(0.73841,0,0,0.73841,52.3967,79.8892)">
                    <circle cx="254.967" cy="227.666" r="30.471" style="fill:#f2a900;fill-opacity:0.5;"/>
                </g>
                <g transform="matrix(0.492273,0,0,0.492273,115.153,143.426)">
                    <circle cx="254.967" cy="227.666" r="30.471" style="fill:#f2a900;"/>
                </g>
                <g transform="matrix(1,0,0,1,0.152302,1.41012)">
                    <text x="207.726px" y="185.431px" style="font-family: 'Atkinson Hyperlegible', sans-serif;font-size:14px;fill:#4d4950;">Stars of all</text>
                    <g transform="matrix(14,0,0,14,291.943,199.431)">
                    </g>
                    <text x="189.085px" y="199.431px" style="font-family: 'Atkinson Hyperlegible', sans-serif;font-size:14px;fill:#4d4950;">conn<tspan x="218.947px " y="199.431px ">e</tspan>cted repos</text>
                </g>
            </g>
            <g transform="matrix(1,0,0,1,-162.321,-111.567)">
                <g transform="matrix(18,0,0,18,266.671,432.844)">
                </g>
                <text x="225.667px" y="432.844px" style="font-family: 'Atkinson Hyperlegible', sans-serif;font-weight:700;font-size:18px;fill:#4d4950;">SIZE</text>
            </g>
            <g transform="matrix(1,0,0,1,-100.592,157.771)">
                <g transform="matrix(1,-0,-0,1,133.747,-81.8651)">
                    <path d="M49.981,349.076L52.681,351.776L55.381,349.076" style="fill:none;stroke:#4d4950;stroke-opacity:0.8;stroke-width:1.5px;"/>
                    <path d="M49.981,295.655L52.681,292.955L55.381,295.655" style="fill:none;stroke:#4d4950;stroke-opacity:0.8;stroke-width:1.5px;"/>
                    <path d="M52.681,351.776L52.681,292.955" style="fill:none;stroke:#4d4950;stroke-opacity:0.8;stroke-width:1.5px;stroke-linejoin:round;stroke-miterlimit:1.5;"/>
                </g>
            </g>
        </g>
        <g transform="matrix(1.12159,0,0,1.1116,-37.1854,-35.7886)">
            <g transform="matrix(1,0,0,1,65.9434,116.559)">
                <g transform="matrix(0.853913,0,0,0.853913,21.976,72.992)">
                    <circle cx="150.431" cy="499.649" r="29.277" style="fill:#ea9df5;"/>
                </g>
                <g transform="matrix(1.19548,0,0,1.19548,-29.4061,-97.6708)">
                    <path d="M168.176,476.367C175.184,481.718 179.708,490.159 179.708,499.649C179.708,515.807 166.59,528.926 150.431,528.926C137.031,528.926 125.721,519.903 122.251,507.606" style="fill:none;stroke:#a682e8;stroke-width:3.76px;stroke-linecap:butt;stroke-linejoin:round;stroke-miterlimit:1.5;"/>
                </g>
                <g transform="matrix(1.45165,0,0,1.45165,-67.9427,-225.668)">
                    <g transform="matrix(0.68887,-0,-0,0.68887,24.2163,127.451)">
                        <path d="M166.196,498.302L169.597,500.036L167.863,503.438" style="fill:none;stroke:#783ce6;stroke-opacity:0.54;stroke-width:1.5px;"/>
                        <path d="M196.732,499.998C213.573,505.649 225.72,521.568 225.72,540.302C225.72,563.758 206.677,582.802 183.22,582.802C159.764,582.802 140.72,563.758 140.72,540.302C140.72,521.609 152.814,505.719 169.597,500.036" style="fill:none;stroke:#783ce6;stroke-opacity:0.54;stroke-width:1.5px;stroke-linejoin:round;stroke-miterlimit:1.5;"/>
                    </g>
                </g>
            </g>
            <g transform="matrix(1,0,0,1,331.292,116.559)">
                <g transform="matrix(0.853913,0,0,0.853913,21.976,72.992)">
                    <circle cx="150.431" cy="499.649" r="29.277" style="fill:#ea9df5;"/>
                </g>
                <g transform="matrix(1.19548,0,0,1.19548,-29.4061,-97.6708)">
                    <path d="M168.176,476.367C175.184,481.718 179.708,490.159 179.708,499.649C179.708,515.807 166.59,528.926 150.431,528.926C137.031,528.926 125.721,519.903 122.251,507.606" style="fill:none;stroke:#a682e8;stroke-width:3.76px;stroke-linecap:butt;stroke-linejoin:round;stroke-miterlimit:1.5;"/>
                </g>
            </g>
            <g transform="matrix(1,0,0,1,259.11,60)">
                <text x="116.742px" y="459px" style="font-family: 'Atkinson Hyperlegible', sans-serif;font-size:14px;fill:#4d4950;">Th<tspan x="132.044px " y="459px ">e</tspan> arc conn<tspan x="196.416px " y="459px ">e</tspan>cts th<tspan x="238.038px " y="459px ">e</tspan> tim<tspan x="269.552px " y="459px ">e</tspan></text>
                <text x="116.742px" y="473px" style="font-family: 'Atkinson Hyperlegible', sans-serif;font-size:14px;fill:#4d4950;">between th<tspan x="184.586px " y="473px ">e</tspan> con<tspan x="218.242px " y="473px ">t</tspan>ributor&apos;s first an<tspan x="319.546px " y="473px ">d</tspan></text>
                <g transform="matrix(14,0,0,14,306.484,487)">
                </g>
                <text x="116.742px" y="487px" style="font-family: 'Atkinson Hyperlegible', sans-serif;font-size:14px;fill:#4d4950;">last commit to th<tspan x="221.336px " y="487px ">e</tspan> cen<tspan x="254.81px 259.346px 263.896px " y="487px 487px 487px ">tra</tspan>l repo</text>
            </g>
            <g transform="matrix(1,0,0,1,-10.74,60)">
                <text x="116.742px" y="459px" style="font-family: 'Atkinson Hyperlegible', sans-serif;font-size:14px;fill:#4d4950;">A full circle represen<tspan x="243.498px " y="459px ">t</tspan> th<tspan x="263.98px " y="459px ">e</tspan> tim<tspan x="295.494px " y="459px ">e</tspan></text>
                <text x="116.742px" y="473px" style="font-family: 'Atkinson Hyperlegible', sans-serif;font-size:14px;fill:#4d4950;">between th<tspan x="184.586px " y="473px ">e</tspan> cen<tspan x="218.06px 222.596px 227.146px " y="473px 473px 473px ">tra</tspan>l repositor<tspan x="297.608px " y="473px ">y</tspan>&apos;s</text>
                <g transform="matrix(14,0,0,14,321.674,487)">
                </g>
                <text x="116.742px" y="487px" style="font-family: 'Atkinson Hyperlegible', sans-serif;font-size:14px;fill:#4d4950;">creation an<tspan x="185.986px " y="487px ">d</tspan> m<tspan x="209.422px " y="487px ">o</tspan>st recen<tspan x="266.514px " y="487px ">t</tspan> commit</text>
            </g>
            <g transform="matrix(1,0,0,1,237.424,63.2069)">
                <g transform="matrix(12,0,0,12,340.389,520.418)">
                </g>
                <text x="273.429px" y="520.418px" style="font-family:'AtkinsonHyperlegible-Italic', 'Atkinson Hyperlegible';font-style:italic;font-size:12px;fill:#4d4950;">First commit</text>
            </g>
            <g transform="matrix(1,0,0,1,93.4629,104.549)">
                <g transform="matrix(12,0,0,12,346.198,525.418)">
                </g>
                <text x="280.522px" y="525.418px" style="font-family:'AtkinsonHyperlegible-Italic', 'Atkinson Hyperlegible';font-style:italic;font-size:12px;fill:#4d4950;">Last commit</text>
            </g>
            <g transform="matrix(1,0,0,1,-139.06,67.0049)">
                <g transform="matrix(12,0,0,12,312.935,520.417)">
                </g>
                <text x="286.343px" y="520.417px" style="font-family:'AtkinsonHyperlegible-Italic', 'Atkinson Hyperlegible';font-style:italic;font-size:12px;fill:#4d4950;">Time</text>
            </g>
            <g transform="matrix(1,0,0,1,-162.321,61.1813)">
                <g transform="matrix(18,0,0,18,272.737,432.844)">
                </g>
                <text x="225.667px" y="432.844px" style="font-family: 'Atkinson Hyperlegible', sans-serif;font-weight:700;font-size:18px;fill:#4d4950;">AR<tspan x="249.481px " y="432.844px ">C</tspan>S</text>
            </g>
        </g>
        <g transform="matrix(1.12159,0,0,1.1116,-37.1854,-294.969)">
            <g transform="matrix(1,0,0,1,649.349,-61.0835)">
                <text x="116.742px" y="458.436px" style="font-family: 'Atkinson Hyperlegible', sans-serif;font-size:14px;fill:#4d4950;">Conn<tspan x="148.788px " y="458.436px ">e</tspan>ctions between</text>
                <text x="116.742px" y="472.436px" style="font-family: 'Atkinson Hyperlegible', sans-serif;font-size:14px;fill:#4d4950;">con<tspan x="138.932px " y="472.436px ">t</tspan>ributors an<tspan x="209.94px " y="472.436px ">d</tspan> th<tspan x="233.782px " y="472.436px ">e</tspan> repositories</text>
                <g transform="matrix(14,0,0,14,286.87,486.436)">
                </g>
                <text x="116.742px" y="486.436px" style="font-family: 'Atkinson Hyperlegible', sans-serif;font-size:14px;fill:#4d4950;">th<tspan x="128.768px " y="486.436px ">e</tspan>y have made commits to</text>
            </g>
            <g transform="matrix(1,0,0,1,795.595,7.98743)">
                <text x="116.742px" y="453.548px" style="font-family:'AtkinsonHyperlegible-Italic', 'Atkinson Hyperlegible';font-style:italic;font-size:12px;fill:#4d4950;">L<tspan x="123.006px " y="453.548px ">i</tspan>ne thickness =</text>
                <g transform="matrix(12,0,0,12,173.394,465.548)">
                </g>
                <text x="116.742px" y="465.548px" style="font-family:'AtkinsonHyperlegible-Italic', 'Atkinson Hyperlegible';font-style:italic;font-size:12px;fill:#4d4950;"># commits</text>
            </g>
            <g transform="matrix(1,0,0,1,497.768,-67.0588)">
                <g transform="matrix(18,0,0,18,277.759,432.844)">
                </g>
                <text x="225.667px" y="432.844px" style="font-family: 'Atkinson Hyperlegible', sans-serif;font-weight:700;font-size:18px;fill:#4d4950;">LINES</text>
            </g>
            <g transform="matrix(1,0,0,1,660.089,-276.176)">
                <path d="M382.32,703.852C382.32,703.852 354.481,687.683 332.335,706.715" style="fill:none;stroke:#e8e8e8;stroke-width:3px;stroke-linecap:butt;stroke-linejoin:round;stroke-miterlimit:1.5;"/>
                <path d="M382.32,703.852C382.32,703.852 358.34,715.534 362.318,742.1" style="fill:none;stroke:#e8e8e8;stroke-width:3px;stroke-linecap:butt;stroke-linejoin:round;stroke-miterlimit:1.5;"/>
                <path d="M382.32,703.852C382.32,703.852 373.732,745.499 413.554,752.036" style="fill:none;stroke:#e8e8e8;stroke-width:6px;stroke-linecap:butt;stroke-linejoin:round;stroke-miterlimit:1.5;"/>
                <path d="M382.32,703.852C382.32,703.852 400.261,731.614 438.25,714.034" style="fill:none;stroke:#e8e8e8;stroke-width:1px;stroke-linecap:butt;stroke-linejoin:round;stroke-miterlimit:1.5;"/>
                <path d="M382.32,703.852C382.32,703.852 427.353,705.189 420.993,661.29" style="fill:none;stroke:#e8e8e8;stroke-width:3.5px;stroke-linecap:butt;stroke-linejoin:round;stroke-miterlimit:1.5;"/>
                <path d="M382.32,703.852C382.32,703.852 381.589,661.41 343.038,651.352" style="fill:none;stroke:#e8e8e8;stroke-width:4px;stroke-linecap:butt;stroke-linejoin:round;stroke-miterlimit:1.5;"/>
                <path d="M343.038,651.352C343.038,651.352 352.159,639.322 375.124,646.617" style="fill:none;stroke:#e8e8e8;stroke-width:2px;stroke-linecap:butt;stroke-linejoin:round;stroke-miterlimit:1.5;"/>
                <g transform="matrix(0.880639,-0.473788,0.473788,0.880639,-264.133,240.848)">
                    <path d="M343.038,651.352C343.038,651.352 338.493,631.479 354.882,622.524" style="fill:none;stroke:#e8e8e8;stroke-width:1.5px;stroke-linecap:butt;stroke-linejoin:round;stroke-miterlimit:1.5;"/>
                </g>
                <path d="M343.038,651.352C343.038,651.352 327.585,663.125 314.073,651.352" style="fill:none;stroke:#e8e8e8;stroke-width:2.5px;stroke-linecap:butt;stroke-linejoin:round;stroke-miterlimit:1.5;"/>
                <g transform="matrix(0.765457,0,0,0.765457,137.874,134.188)">
                    <circle cx="319.347" cy="744.215" r="22.862" style="fill:#ea9df5;"/>
                </g>
                <g transform="matrix(0.434689,0,0,0.434689,282.176,337.788)">
                    <circle cx="319.347" cy="744.215" r="22.862" style="fill:#64d6d3;"/>
                </g>
                <g transform="matrix(0.320126,0,0,0.320126,336.019,475.791)">
                    <circle cx="319.347" cy="744.215" r="22.862" style="fill:#64d6d3;"/>
                </g>
                <g transform="matrix(0.562219,0,0,0.562219,163.495,232.941)">
                    <circle cx="319.347" cy="744.215" r="22.862" style="fill:#f2a900;"/>
                </g>
                <g transform="matrix(0.28111,0,0,0.28111,253.267,413.431)">
                    <circle cx="319.347" cy="744.215" r="22.862" style="fill:#64d6d3;"/>
                </g>
                <g transform="matrix(0.207139,0,0,0.207139,247.923,497.197)">
                    <circle cx="319.347" cy="744.215" r="22.862" style="fill:#64d6d3;"/>
                </g>
                <g transform="matrix(0.351906,0,0,0.34929,262.744,386.67)">
                    <circle cx="319.347" cy="744.215" r="22.862" style="fill:#64d6d3;"/>
                </g>
                <g transform="matrix(0.434689,0,0,0.434689,193.518,383.213)">
                    <circle cx="319.347" cy="744.215" r="22.862" style="fill:#64d6d3;"/>
                </g>
                <g transform="matrix(0.325263,0,0,0.325263,258.447,500.035)">
                    <circle cx="319.347" cy="744.215" r="22.862" style="fill:#64d6d3;"/>
                </g>
                <g transform="matrix(0.544001,0,0,0.544001,239.829,347.183)">
                    <circle cx="319.347" cy="744.215" r="22.862" style="fill:#64d6d3;"/>
                </g>
            </g>
        </g>
        <g transform="matrix(1.12159,0,0,1.1116,-70.8332,184.053)">
            <g transform="matrix(1,0,0,1,895.226,-237.67)">
                <g transform="matrix(14,0,0,14,262.902,454.124)">
                </g>
                <text x="116.742px" y="454.124px" style="font-family: 'Atkinson Hyperlegible', sans-serif;font-size:14px;fill:#4d4950;">Con<tspan x="141.116px " y="454.124px ">t</tspan>ributors with OR<tspan x="244.954px " y="454.124px ">C</tspan>A</text>
            </g>
            <g transform="matrix(1,0,0,1,895.226,-209.895)">
                <text x="116.742px" y="452.138px" style="font-family: 'Atkinson Hyperlegible', sans-serif;font-size:14px;fill:#4d4950;">T<tspan x="123.35px " y="452.138px ">o</tspan>p con<tspan x="165.112px " y="452.138px ">t</tspan>ributors</text>
                <g transform="matrix(14,0,0,14,201.988,466.138)">
                </g>
                <text x="116.742px" y="466.138px" style="font-family: 'Atkinson Hyperlegible', sans-serif;font-size:14px;fill:#4d4950;">with<tspan x="141.816px " y="466.138px ">o</tspan>ut OR<tspan x="184.04px " y="466.138px ">C</tspan>A</text>
            </g>
            <g transform="matrix(1,0,0,1,815.279,-324.435)">
                <text x="116.742px" y="453.548px" style="font-family:'AtkinsonHyperlegible-Italic', 'Atkinson Hyperlegible';font-style:italic;font-size:12px;fill:#4d4950;">con<tspan x="135.69px " y="453.548px ">t</tspan>ributors are sor<tspan x="221.082px " y="453.548px ">t</tspan>ed</text>
                <g transform="matrix(12,0,0,12,244.218,465.548)">
                </g>
                <text x="116.742px" y="465.548px" style="font-family:'AtkinsonHyperlegible-Italic', 'Atkinson Hyperlegible';font-style:italic;font-size:12px;fill:#4d4950;">by their 1st commit date</text>
            </g>
            <g transform="matrix(1,0,0,1,527.768,-320.394)">
                <g transform="matrix(18,0,0,18,347.131,432.844)">
                </g>
                <text x="225.667px" y="432.844px" style="font-family: 'Atkinson Hyperlegible', sans-serif;font-weight:700;font-size:18px;fill:#4d4950;">OUTER RINGS</text>
            </g>
            <g transform="matrix(0.619713,0,0,0.619713,284.3,80.4178)">
                <path d="M981.048,142.201C1040.16,142.201 1088.15,190.193 1088.15,249.306C1088.15,308.418 1040.16,356.41 981.048,356.41C921.935,356.41 873.943,308.418 873.943,249.306C873.943,190.193 921.935,142.201 981.048,142.201ZM981.048,174.474C939.747,174.474 906.216,208.005 906.216,249.306C906.216,290.606 939.747,324.137 981.048,324.137C1022.35,324.137 1055.88,290.606 1055.88,249.306C1055.88,208.005 1022.35,174.474 981.048,174.474Z" style="fill:#783ce6;fill-opacity:0.33;"/>
            </g>
            <g transform="matrix(0.650698,0,0,0.650698,253.902,72.6929)">
                <path d="M981.048,111.465C1057.12,111.465 1118.89,173.229 1118.89,249.306C1118.89,325.382 1057.12,387.146 981.048,387.146C904.972,387.146 843.207,325.382 843.207,249.306C843.207,173.229 904.972,111.465 981.048,111.465ZM981.048,142.201C921.935,142.201 873.943,190.193 873.943,249.306C873.943,308.418 921.935,356.41 981.048,356.41C1040.16,356.41 1088.15,308.418 1088.15,249.306C1088.15,190.193 1040.16,142.201 981.048,142.201Z" style="fill:#783ce6;fill-opacity:0.17;"/>
            </g>
            <g transform="matrix(1,0,0,1,-76.0783,22.0663)">
                <g transform="matrix(1,-0,-0,1,139.233,-143.932)">
                    <path d="M888.773,347.662L884.962,347.888L884.735,344.077" style="fill:none;stroke:#a682e8;stroke-width:1.5px;stroke-linecap:butt;"/>
                    <path d="M938.697,335.321C938.697,335.321 907.692,322.778 884.962,347.888" style="fill:none;stroke:#a682e8;stroke-width:1.5px;stroke-linecap:butt;stroke-linejoin:round;stroke-miterlimit:1.5;"/>
                </g>
            </g>
            <g transform="matrix(1.495,0,0,1,-609.656,-14.9313)">
                <g transform="matrix(0.668895,-0,-0,1,450.04,-106.934)">
                    <path d="M909.162,364.51L907.745,360.964L911.291,359.547" style="fill:none;stroke:#4d4950;stroke-opacity:0.68;stroke-width:1.5px;stroke-linecap:butt;"/>
                    <path d="M938.697,360.546C938.697,360.546 930.176,370.392 907.745,360.964" style="fill:none;stroke:#4d4950;stroke-opacity:0.68;stroke-width:1.5px;stroke-linecap:butt;stroke-linejoin:round;stroke-miterlimit:1.5;"/>
                </g>
            </g>
            <g transform="matrix(0.820165,0,0,0.678449,87.5913,64.9347)">
                <g transform="matrix(1.21927,-0,-0,1.47395,-29.795,-275.334)">
                    <path d="M918.488,294.579L916.549,297.868L913.26,295.929" style="fill:none;stroke:#4d4950;stroke-opacity:0.47;stroke-width:1.5px;stroke-linecap:butt;"/>
                    <path d="M891.002,269.446C891.002,269.446 910.658,276.122 916.549,297.868" style="fill:none;stroke:#4d4950;stroke-opacity:0.47;stroke-width:1.5px;stroke-linecap:butt;stroke-linejoin:round;stroke-miterlimit:1.5;"/>
                </g>
            </g>
        </g>
        <g transform="matrix(1.12159,0,0,1.1116,521.105,138.88)">
            <g transform="matrix(18,0,0,18,360.361,432.844)">
            </g>
            <text x="225.667px" y="432.844px" style="font-family: 'Atkinson Hyperlegible', sans-serif;font-weight:700;font-size:18px;fill:#4d4950;">INTER<tspan x="280.153px 291.907px " y="432.844px 432.844px ">AC</tspan>TI<tspan x="322.867px " y="432.844px ">O</tspan>NS</text>
        </g>
        <g transform="matrix(1.12159,0,0,1.1116,7.62105,-119.249)">
            <g transform="matrix(1,0,0,1,653.349,240.297)">
                <text x="116.742px" y="465.436px" style="font-family: 'Atkinson Hyperlegible', sans-serif;font-size:14px;fill:#4d4950;">over any circle to see</text>
                <g transform="matrix(14,0,0,14,244.464,479.436)">
                </g>
                <text x="116.742px" y="479.436px" style="font-family: 'Atkinson Hyperlegible', sans-serif;font-size:14px;fill:#4d4950;">all of its conn<tspan x="199.524px " y="479.436px ">e</tspan>ctions</text>
            </g>
            <g transform="matrix(1,0,0,1,583.258,240.297)">
                <g transform="matrix(16,0,0,16,177.028,473.104)">
                </g>
                <text x="124.148px" y="473.104px" style="font-family: 'Atkinson Hyperlegible', sans-serif;font-weight:700;font-size:16px;fill:#4d4950;">HO<tspan x="146.788px " y="473.104px ">V</tspan>ER</text>
            </g>
        </g>
        <g transform="matrix(1.12159,0,0,1.1116,-24.1334,-119.249)">
            <g transform="matrix(1,0,0,1,900.387,240.297)">
                <text x="116.742px" y="465.436px" style="font-family: 'Atkinson Hyperlegible', sans-serif;font-size:14px;fill:#4d4950;">on a circle to fix th<tspan x="231.612px " y="465.436px ">e</tspan></text>
                <g transform="matrix(14,0,0,14,237.842,479.436)">
                </g>
                <text x="116.742px" y="479.436px" style="font-family: 'Atkinson Hyperlegible', sans-serif;font-size:14px;fill:#4d4950;">circle&apos;s conn<tspan x="192.902px " y="479.436px ">e</tspan>ctions</text>
            </g>
            <g transform="matrix(1,0,0,1,830.296,240.297)">
                <g transform="matrix(16,0,0,16,177.028,473.104)">
                </g>
                <text x="129.476px" y="473.104px" style="font-family: 'Atkinson Hyperlegible', sans-serif;font-weight:700;font-size:16px;fill:#4d4950;">CLI<tspan x="155.716px " y="473.104px ">C</tspan>K</text>
            </g>
        </g>
    </g>
</svg>
